<svg xmlns="http://www.w3.org/2000/svg" width="24" height="24" viewBox="0 0 24 24" fill="none">
  <path d="M12.857 4.06001L18.723 8.87701C19.053 9.14701 19.25 9.56301 19.25 10.007V18.81C19.25 19.624 18.612 20.25 17.867 20.25H15.25V15.5C15.25 14.7707 14.9603 14.0712 14.4446 13.5555C13.9288 13.0397 13.2294 12.75 12.5 12.75H11.5C10.7707 12.75 10.0712 13.0397 9.55547 13.5555C9.03974 14.0712 8.75001 14.7707 8.75001 15.5V20.25H6.13301C5.38801 20.25 4.75001 19.624 4.75001 18.81V10.008C4.75001 9.56301 4.94701 9.14801 5.27701 8.87801L11.143 4.05901C11.3837 3.85877 11.6869 3.74913 12 3.74913C12.3131 3.74913 12.6163 3.85977 12.857 4.06001ZM17.867 21.749C19.477 21.749 20.75 20.414 20.75 18.809V10.007C20.7512 9.56959 20.6554 9.13735 20.4695 8.74138C20.2836 8.34542 20.0123 7.99557 19.675 7.71701L13.81 2.90001C13.301 2.47941 12.6613 2.24933 12.001 2.24933C11.3407 2.24933 10.701 2.47941 10.192 2.90001L4.32501 7.71801C3.98775 7.99657 3.71642 8.34642 3.53054 8.74238C3.34467 9.13835 3.24886 9.57059 3.25001 10.008V18.81C3.25001 20.415 4.52301 21.75 6.13301 21.75L17.867 21.749Z" fill="currentColor"/>
</svg>