<svg xmlns="http://www.w3.org/2000/svg" width="306" height="7" viewBox="0 0 306 7" fill="none">
  <path d="M0.333333 3C0.333333 4.47276 1.52724 5.66667 3 5.66667C4.47276 5.66667 5.66667 4.47276 5.66667 3C5.66667 1.52724 4.47276 0.333333 3 0.333333C1.52724 0.333333 0.333333 1.52724 0.333333 3ZM300.333 3C300.333 4.47276 301.527 5.66667 303 5.66667C304.473 5.66667 305.667 4.47276 305.667 3C305.667 1.52724 304.473 0.333333 303 0.333333C301.527 0.333333 300.333 1.52724 300.333 3ZM3 3.5H303V2.5H3V3.5Z" fill="#797979"/>
  <line x1="0" y1="6.5" x2="306" y2="6.5" stroke="#E3E3E3"/>
</svg>