<svg width="160" height="123" viewBox="0 0 160 123" fill="none" xmlns="http://www.w3.org/2000/svg">
<g filter="url(#filter0_d_79_2272)">
<rect x="7.01586" y="1.14509" width="143.047" height="103.366" rx="29" transform="rotate(2.75533 7.01586 1.14509)" fill="#FBE5D0" stroke="#28292C" stroke-width="2"/>
<rect x="7.0324" y="1.04692" width="143.086" height="46.7841" rx="23.392" transform="rotate(2.75533 7.0324 1.04692)" fill="#BA6C25" stroke="#28292C" stroke-width="2"/>
<mask id="path-3-inside-1_79_2272" fill="white">
<path d="M5.02629 21.793L149.97 28.9484L147.446 80.075L2.50233 72.9196L5.02629 21.793Z"/>
</mask>
<path d="M5.02629 21.793L149.97 28.9484L147.446 80.075L2.50233 72.9196L5.02629 21.793Z" fill="#FBE5D0"/>
<path d="M5.02629 21.793L5.1249 19.7954L3.12734 19.6968L3.02872 21.6944L5.02629 21.793ZM149.97 28.9484L151.967 29.047L152.066 27.0494L150.068 26.9508L149.97 28.9484ZM4.92768 23.7905L149.871 30.9459L150.068 26.9508L5.1249 19.7954L4.92768 23.7905ZM147.972 28.8497L145.448 79.9764L149.443 80.1736L151.967 29.047L147.972 28.8497ZM4.49989 73.0182L7.02386 21.8916L3.02872 21.6944L0.504759 72.821L4.49989 73.0182Z" fill="#28292C" mask="url(#path-3-inside-1_79_2272)"/>
<ellipse cx="23.0691" cy="13.0921" rx="4.4335" ry="4.4335" transform="rotate(2.53139 23.0691 13.0921)" fill="#EF9C50"/>
<circle cx="37.1043" cy="13.7126" r="4.4335" transform="rotate(2.53139 37.1043 13.7126)" fill="#EF9C50"/>
<path d="M59.5547 50.0098C59.6458 48.0957 60.5117 46.5234 62.1523 45.293C63.8385 44.0169 65.7982 42.9915 68.0312 42.2168C70.0365 41.5788 71.9733 41.123 73.8418 40.8496C75.7103 40.5306 77.2598 40.3711 78.4902 40.3711C83.321 40.3711 87.1947 41.4876 90.1113 43.7207C93.028 45.9082 94.4408 49.9186 94.3496 55.752C94.3496 58.7142 93.6204 60.8561 92.1621 62.1777C90.7038 63.4538 88.6758 64.2741 86.0781 64.6387C83.7995 65.0488 81.8171 65.2539 80.1309 65.2539C78.4447 65.2539 77.3509 65.8919 76.8496 67.168C76.8496 69.0365 76.8952 70.6087 76.9863 71.8848C77.123 73.1608 77.1914 74.2773 77.1914 75.2344C77.1914 76.6927 76.3939 77.4219 74.7988 77.4219C73.3861 77.513 72.4974 76.6471 72.1328 74.8242C71.9505 73.4115 71.8594 72.0443 71.8594 70.7227C71.8594 69.3555 71.8594 67.8743 71.8594 66.2793C71.8594 63.3171 73.5911 61.6536 77.0547 61.2891C77.875 61.0612 79.3333 60.8561 81.4297 60.6738C83.526 60.446 85.0072 60.2409 85.873 60.0586C88.4251 59.056 89.6784 57.347 89.6328 54.9316C89.6328 51.2858 88.6758 48.7565 86.7617 47.3438C84.8477 45.931 82.3184 45.2246 79.1738 45.2246C77.4876 45.2246 75.7103 45.3841 73.8418 45.7031C72.0189 46.0221 70.2871 46.6146 68.6465 47.4805C67.0059 48.4375 65.7298 49.554 64.8184 50.8301C64.0892 52.1973 63.0866 52.8125 61.8105 52.6758C60.8079 52.5391 60.1699 52.1973 59.8965 51.6504C59.6686 51.1035 59.5547 50.5566 59.5547 50.0098ZM70.9707 87.9492C70.9707 86.7188 71.3125 85.6706 71.9961 84.8047C72.7253 83.8932 73.7507 83.4375 75.0723 83.4375C76.3027 83.4375 77.3509 83.8021 78.2168 84.5312C79.1283 85.2604 79.584 86.2402 79.584 87.4707C79.584 88.8379 79.2422 89.8861 78.5586 90.6152C77.9206 91.3444 77.0547 91.709 75.9609 91.709C74.776 91.709 73.6367 91.4128 72.543 90.8203C71.4948 90.2279 70.9707 89.2708 70.9707 87.9492Z" fill="#FA9D49"/>
</g>
<defs>
<filter id="filter0_d_79_2272" x="-1" y="0" width="162" height="124.315" filterUnits="userSpaceOnUse" color-interpolation-filters="sRGB">
<feFlood flood-opacity="0" result="BackgroundImageFix"/>
<feColorMatrix in="SourceAlpha" type="matrix" values="0 0 0 0 0 0 0 0 0 0 0 0 0 0 0 0 0 0 127 0" result="hardAlpha"/>
<feOffset dx="4" dy="6"/>
<feGaussianBlur stdDeviation="3"/>
<feComposite in2="hardAlpha" operator="out"/>
<feColorMatrix type="matrix" values="0 0 0 0 0 0 0 0 0 0 0 0 0 0 0 0 0 0 0.25 0"/>
<feBlend mode="normal" in2="BackgroundImageFix" result="effect1_dropShadow_79_2272"/>
<feBlend mode="normal" in="SourceGraphic" in2="effect1_dropShadow_79_2272" result="shape"/>
</filter>
</defs>
</svg>
